<svg width="109" height="156" viewBox="0 0 109 156" fill="none" xmlns="http://www.w3.org/2000/svg">
<path id="Base" d="M98.0402 2.0704V71.0704H68.6502V77.5104H55.7202V102.62H83.7202C84.1497 105.068 84.4303 107.539 84.5602 110.02C87.9302 107.47 91.6202 107.1 94.3502 109.51C98.7002 113.37 98.9602 122.87 94.9202 130.74C90.8802 138.61 84.1002 141.9 79.7802 138.06C78.8209 139.967 77.6825 141.779 76.3802 143.47V147H32.1002V144.35C32.1002 144.35 20.1502 124.35 23.9502 102.65H52.1402V77.5604H41.6102V71.7104H12.8102L12.2202 0.900391H0.470215V155.98H108.62V2.0704H98.0402Z" fill="#D8BAA4"/>
</svg>
