<svg width="29" height="28" viewBox="0 0 29 28" fill="none" xmlns="http://www.w3.org/2000/svg">
<path id="Circle" d="M14.1703 0.200216C16.9187 0.195442 19.607 1.00499 21.8958 2.52668C24.1845 4.04837 25.9712 6.21401 27.0303 8.75022C27.813 10.6459 28.1654 12.6917 28.0618 14.74C27.9582 16.7883 27.4013 18.7882 26.4313 20.5952C25.4613 22.4023 24.1023 23.9715 22.4524 25.1898C20.8025 26.4081 18.9028 27.245 16.8903 27.6402C14.8763 28.0473 12.797 28.0022 10.8026 27.5081C8.80818 27.014 6.94828 26.0833 5.35724 24.7831C3.7662 23.4829 2.48373 21.8457 1.60229 19.9896C0.720859 18.1336 0.262452 16.1049 0.260254 14.0502C0.273489 10.3707 1.74518 6.84644 4.35266 4.2502C6.96015 1.65397 10.4907 0.197545 14.1703 0.200216V0.200216Z" fill="white"/>
</svg>
