<svg width="576" height="349" viewBox="0 0 576 349" fill="none" xmlns="http://www.w3.org/2000/svg">
<g id="Coffee">
<rect width="576" height="348.62" fill="white"/>
<path id="Handle" d="M346.628 150.119C341.295 144.645 334.943 140.267 327.929 137.23L327.219 136.958L307.653 137.054L307.604 128.078L251.196 118.71L257.112 128.352L257.286 152.885C257.286 152.885 265.729 156.827 281.715 156.747C297.7 156.667 307.732 152.641 307.732 152.641L307.695 145.255L325.64 145.169C331.394 147.883 336.616 151.607 341.057 156.163C351.569 166.845 356.932 180.676 357.018 197.283C357.021 197.821 357.131 198.354 357.34 198.851C357.55 199.347 357.855 199.797 358.239 200.175C358.617 200.558 359.07 200.861 359.568 201.065C360.066 201.269 360.601 201.37 361.139 201.362C361.678 201.361 362.211 201.254 362.708 201.046C363.205 200.838 363.655 200.534 364.034 200.151C364.415 199.769 364.716 199.315 364.92 198.815C365.123 198.315 365.225 197.78 365.219 197.24C365.11 173.613 355.042 158.56 346.606 150.114L346.628 150.119Z" fill="#D3B5A1"/>
<path id="Hand" d="M257.106 128.322L257.28 152.856C257.28 152.856 265.723 156.797 281.709 156.717C297.694 156.637 307.726 152.612 307.726 152.612L307.689 145.226L325.634 145.139C331.386 147.857 336.608 151.58 341.051 156.134C351.563 166.816 356.928 180.656 357.011 197.253C357.019 197.789 357.132 198.318 357.344 198.811C357.557 199.303 357.864 199.749 358.248 200.122C358.627 200.505 359.079 200.808 359.578 201.012C360.076 201.216 360.61 201.317 361.149 201.309C361.687 201.308 362.22 201.201 362.717 200.993C363.214 200.785 363.665 200.481 364.043 200.098C364.424 199.716 364.726 199.261 364.929 198.762C365.132 198.262 365.234 197.727 365.228 197.187C365.12 173.559 355.054 158.517 346.618 150.07C341.282 144.6 334.93 140.222 327.919 137.181L327.209 136.909L307.643 137.005L307.594 128.029" fill="#D3B5A1"/>
<path id="Coffee_2" d="M266.39 192.97C256.83 188.1 251.62 180.08 249.12 175.42C248.25 176.42 234.52 191.8 239.96 210.84C243.9 224.64 255.33 231.25 258.28 232.84C266.28 237.1 273.77 237.1 282.72 237.1C290.57 237.1 297.58 237.1 305.32 233.44C316.55 228.12 322.24 218.44 324.61 213.59C328.18 200.25 326.34 195.09 323.7 192.96C318.88 189.06 311.6 195.45 294.29 196.82C287.08 197.37 276.64 198.2 266.39 192.97Z" fill="#96612F"/>
<path id="Glass " d="M332.42 199.29C332.42 214.71 323.42 229.29 309.06 237.4C307.47 238.23 299.14 239.97 283.53 239.97C277.666 239.986 271.805 239.703 265.97 239.12C258.67 238.32 256.63 237.33 256.62 237.32C249.46 233.572 243.369 228.066 238.92 221.32C234.659 214.771 232.378 207.132 232.35 199.32C232.349 192.135 234.287 185.084 237.96 178.91C240.578 174.501 243.918 170.563 247.84 167.26C248.451 167.657 249.089 168.012 249.75 168.32C251.75 169.27 262.64 174 281.61 174C300.35 174 312.61 169.3 313.92 168.75C314.967 168.334 315.972 167.818 316.92 167.21C320.847 170.502 324.191 174.434 326.81 178.84C330.51 185.026 332.459 192.101 332.45 199.31L332.42 199.29ZM315.81 156.23C315.344 157.332 314.665 158.331 313.81 159.17C312.95 160.01 311.93 160.67 310.81 161.11C310.34 161.3 299.12 165.76 281.55 165.76C263.98 165.76 254.27 161.38 253.22 160.87C251.243 159.931 249.663 158.323 248.76 156.33C233.84 165.85 224.1 181.54 224.1 199.33C224.1 218.6 235.59 235.44 252.71 244.6C257.13 246.96 270.38 248.21 283.49 248.21C296.13 248.21 308.65 247.05 313.04 244.6C329.58 235.33 340.61 218.2 340.61 199.33C340.61 181.52 330.8 165.78 315.8 156.27L315.81 156.23Z" fill="#D5C8C0"/>
</g>
</svg>
