<svg width="576" height="349" viewBox="0 0 576 349" fill="none" xmlns="http://www.w3.org/2000/svg">
<g id="Coffee Maker">
<rect width="576" height="348.62" fill="white"/>
<path id="Drop" d="M282.41 225.58C281.72 228.1 279.34 231.2 275.96 231.26C272.58 231.32 270.11 228.48 269.34 225.95C268.9 224.56 269.08 223.44 271.73 216.42C274.63 208.75 275.19 208.09 275.84 208.07C277 208.07 278.14 211.02 280.38 216.97C282.76 223.25 282.71 224.48 282.41 225.58Z" fill="#96612F"/>
<path id="Piece" d="M314.23 228.38C316.85 223.25 316.7 217.06 313.85 214.52C311.85 212.78 309.11 213.27 306.73 215.52C306.708 221.389 305.787 227.22 304 232.81C304.1 232.93 304.2 233.05 304.31 233.16C307.15 235.64 311.6 233.52 314.23 228.38Z" fill="#D8BAA4"/>
<path id="Top" d="M314.99 85.6603C314.99 85.6603 280.22 63.6603 240.14 86.0603V87.6503H314.99V85.6603Z" fill="#DDD1C8"/>
<path id="Underline" d="M333.67 263.11H223.3C222.733 263.109 222.172 263.221 221.65 263.44C221.131 263.654 220.659 263.966 220.26 264.36C219.463 265.157 219.011 266.234 219 267.36V267.52C219.003 268.079 219.115 268.631 219.331 269.146C219.548 269.66 219.863 270.128 220.26 270.52C221.059 271.312 222.135 271.761 223.26 271.77H333.67C334.795 271.76 335.871 271.312 336.67 270.52C337.465 269.724 337.914 268.646 337.92 267.52V267.36C337.919 266.798 337.811 266.241 337.6 265.72C337.379 265.203 337.064 264.732 336.67 264.33C336.267 263.936 335.792 263.624 335.27 263.41C334.761 263.207 334.218 263.105 333.67 263.11V263.11Z" fill="#96612F"/>
<path id="Circle" d="M277.17 111.2C279.919 111.195 282.607 112.005 284.896 113.527C287.185 115.048 288.971 117.214 290.03 119.75C290.813 121.646 291.165 123.692 291.062 125.74C290.958 127.788 290.401 129.788 289.431 131.595C288.461 133.402 287.102 134.972 285.452 136.19C283.802 137.408 281.903 138.245 279.89 138.64C277.876 139.047 275.797 139.002 273.803 138.508C271.808 138.014 269.948 137.083 268.357 135.783C266.766 134.483 265.484 132.846 264.602 130.99C263.721 129.134 263.262 127.105 263.26 125.05C263.273 121.371 264.745 117.846 267.353 115.25C269.96 112.654 273.491 111.198 277.17 111.2V111.2Z" fill="white"/>
<path id="Square" d="M277.17 110.91C279.919 110.906 282.607 111.715 284.896 113.237C287.184 114.758 288.971 116.924 290.03 119.46C291.084 121.991 291.362 124.778 290.827 127.467C290.293 130.156 288.971 132.625 287.03 134.56C285.572 136.009 283.812 137.118 281.875 137.808C279.939 138.497 277.874 138.75 275.828 138.549C273.782 138.347 271.806 137.696 270.042 136.642C268.277 135.587 266.767 134.156 265.62 132.45C264.229 130.36 263.432 127.932 263.313 125.424C263.195 122.916 263.76 120.423 264.948 118.212C266.136 116 267.902 114.153 270.058 112.867C272.215 111.581 274.68 110.904 277.19 110.91H277.17ZM314.99 165.52V91.0603H240.1V165.52H314.99Z" fill="#DDD1C8"/>
<path id="Base" d="M320.04 102.07V171.07H290.65V177.51H277.72V202.62H305.72C306.15 205.068 306.43 207.539 306.56 210.02C309.93 207.47 313.62 207.1 316.35 209.51C320.7 213.37 320.96 222.87 316.92 230.74C312.88 238.61 306.1 241.9 301.78 238.06C300.821 239.967 299.682 241.779 298.38 243.47V247H254.1V244.35C254.1 244.35 242.15 224.35 245.95 202.65H274.14V177.56H263.61V171.71H234.81L234.22 100.9H222.47V255.98H330.62V102.07H320.04Z" fill="#D8BAA4"/>
</g>
</svg>
