<svg width="576" height="349" viewBox="0 0 576 349" fill="none" xmlns="http://www.w3.org/2000/svg">
<g id="Coffee Bean">
<rect width="576" height="348.62" fill="white"/>
<path id="Base2" d="M326.49 203.51H242.11C241.678 203.508 241.249 203.593 240.85 203.76C240.454 203.925 240.094 204.166 239.79 204.47C239.483 204.775 239.242 205.139 239.08 205.54C238.913 205.939 238.828 206.368 238.83 206.8V206.92C238.828 207.353 238.913 207.781 239.08 208.18C239.239 208.583 239.481 208.947 239.79 209.25C240.091 209.559 240.452 209.804 240.85 209.97C241.25 210.132 241.678 210.217 242.11 210.22H326.49C326.922 210.219 327.35 210.132 327.748 209.966C328.147 209.799 328.509 209.556 328.814 209.249C329.118 208.943 329.359 208.58 329.524 208.18C329.688 207.78 329.771 207.352 329.77 206.92V206.8C329.772 206.368 329.687 205.939 329.52 205.54C329.359 205.139 329.117 204.775 328.81 204.47C328.503 204.166 328.139 203.925 327.74 203.76C327.345 203.593 326.919 203.508 326.49 203.51V203.51Z" fill="#D5C8C0"/>
<path id="Outline" d="M287.69 257.43C332.806 257.43 369.38 220.856 369.38 175.74C369.38 130.624 332.806 94.05 287.69 94.05C242.574 94.05 206 130.624 206 175.74C206 220.856 242.574 257.43 287.69 257.43Z" stroke="#D8BAA4" stroke-width="8" stroke-miterlimit="10"/>
<path id="Half2" d="M288.73 157.59C289.714 154.562 290.538 151.484 291.2 148.37C292.31 143.53 293.46 138.53 295.8 133.9C297.089 131.217 298.925 128.832 301.19 126.9C301.297 126.804 301.377 126.681 301.421 126.544C301.465 126.406 301.472 126.26 301.44 126.119C301.408 125.978 301.34 125.849 301.241 125.744C301.143 125.638 301.018 125.561 300.88 125.52C286.12 120.26 273.56 132.15 265.82 146.52C259.12 158.94 257 173.45 264.14 182.89C264.511 183.372 265.018 183.732 265.595 183.924C266.172 184.117 266.794 184.133 267.38 183.97C276.52 181.25 283.54 172.56 288.73 157.6V157.59Z" fill="#96612F"/>
<path id="Half1" d="M308.76 129.95C308.501 129.741 308.189 129.608 307.858 129.567C307.527 129.527 307.192 129.58 306.89 129.72C304.09 131.13 302.13 133.84 300.81 136.45C298.74 140.55 297.71 145.05 296.61 149.82C295.913 153.104 295.042 156.349 294 159.54C288.9 174.23 282 183.54 273 187.69C271.06 188.69 273.2 189.76 273.54 189.92C287.91 195.86 303.02 185.56 310.97 170.83C318.56 156.75 321.1 139.83 308.78 129.92L308.76 129.95Z" fill="#96612F"/>
</g>
</svg>
