<svg width="576" height="349" viewBox="0 0 576 349" fill="none" xmlns="http://www.w3.org/2000/svg">
<g id="First Dots">
<rect width="576" height="348.62" fill="white"/>
<path id="Vector" d="M255 183C259.971 183 264 178.971 264 174C264 169.029 259.971 165 255 165C250.029 165 246 169.029 246 174C246 178.971 250.029 183 255 183Z" fill="#D5C8C0"/>
<path id="Vector_2" d="M321.86 183C326.83 183 330.86 178.971 330.86 174C330.86 169.029 326.83 165 321.86 165C316.889 165 312.86 169.029 312.86 174C312.86 178.971 316.889 183 321.86 183Z" fill="#96612F"/>
<path id="Vector_3" d="M288.43 183C293.4 183 297.43 178.971 297.43 174C297.43 169.029 293.4 165 288.43 165C283.459 165 279.43 169.029 279.43 174C279.43 178.971 283.459 183 288.43 183Z" fill="#D3B5A1"/>
</g>
</svg>
