<svg width="576" height="349" viewBox="0 0 576 349" fill="none" xmlns="http://www.w3.org/2000/svg">
<g id="French Press">
<rect width="576" height="348.62" fill="white"/>
<path id="Cup2" d="M355.65 139.5C349.94 134.5 342.6 132.66 333.57 132.77H333.04C331.75 132.77 330.42 132.87 329.04 132.97V132.82H229.93C228.302 133.637 227.016 135.005 226.3 136.68C225.991 137.419 225.878 138.225 225.97 139.02C226.093 139.82 226.44 140.569 226.97 141.18C231.91 146.49 244.62 162.45 244.62 172.18V260.37C244.62 265.07 249.01 268.94 253.96 268.94H320.74C321.861 268.954 322.973 268.741 324.008 268.313C325.044 267.885 325.982 267.251 326.765 266.45C327.549 265.648 328.162 264.696 328.566 263.651C328.971 262.606 329.159 261.49 329.12 260.37V222.98C343.55 222.4 354.42 217.46 361.12 208.25C366.32 201.11 368.95 191.46 368.95 179.55C368.93 172.51 368.93 151.09 355.65 139.5Z" fill="#D5C8C0"/>
<path id="More 2" d="M238.93 142.34H287.85V225.82C272.85 226.64 260.58 231.94 254.22 239.3V172.08C254.21 162.19 245.47 150.17 238.93 142.34Z" fill="#F7F1F0"/>
<path id="More" d="M320.8 142.69V238.52C314.38 231.59 302.02 226.64 287.8 225.78V142.34H320.6C321.04 142.34 320.8 142.57 320.8 142.69Z" fill="#F7F1F0"/>
<path id="Top" d="M321.21 118.82H291.12V105.61C293.221 103.287 294.716 100.48 295.47 97.44C296 95.29 297.3 89.98 294.16 85.71C293.73 85.12 291.21 81.71 287.28 81.71C282.44 81.71 279.55 86.87 279.28 87.42C276.55 92.5 278.18 99.73 283.28 105.71V118.82H254.28C249.59 118.82 244.52 121.97 244.52 127.06L244.58 133.06H329.01V127.06C329.04 122.17 326.03 118.82 321.21 118.82Z" fill="#D8BAA4"/>
<path id="Strip" d="M291.12 142.34H281.93V175.44H291.12V142.34Z" fill="#D8BAA4"/>
<path id="Inside" d="M353.72 202.92C348.79 209.69 340.59 213.36 329.05 213.92V141.07C337.71 140.3 344.81 142.07 349.66 146.32C359.8 155.2 359.8 173.52 359.8 179.55C359.82 189.5 357.76 197.36 353.72 202.92Z" fill="#F7F1F0"/>
<path id="Press" d="M320.69 186.56H255.31C254.92 186.56 254.23 186.37 254.23 186.2V175.44H320.83V186.24C320.83 186.37 321.01 186.56 320.69 186.56Z" fill="#D8BAA4"/>
<path id="Drip" d="M284.81 249.44H268.81C262.64 249.44 257.57 249.44 254.19 249.44C254.19 233.107 254.19 216.773 254.19 200.44C257.635 203.688 261.829 206.035 266.4 207.27C269.646 208.203 273.044 208.485 276.4 208.1C283.1 207.29 286.48 204 295.99 199.49C303.918 195.749 312.249 192.93 320.82 191.09V249.41C308.82 249.423 296.816 249.433 284.81 249.44Z" fill="#96612F"/>
</g>
</svg>
