<svg width="75" height="75" viewBox="0 0 75 75" fill="none" xmlns="http://www.w3.org/2000/svg">
<path id="Square" d="M37.1701 19.9103C39.9186 19.9055 42.6068 20.7151 44.8956 22.2368C47.1843 23.7585 48.971 25.9241 50.0301 28.4603C51.0841 30.991 51.3616 33.7779 50.8274 36.4667C50.2932 39.1555 48.9714 41.6247 47.0301 43.5603C45.5721 45.0094 43.8119 46.1183 41.8753 46.8078C39.9388 47.4973 37.8738 47.7503 35.8281 47.5487C33.7823 47.3471 31.8064 46.6959 30.0417 45.6416C28.2771 44.5874 26.7672 43.1561 25.6201 41.4503C24.229 39.3604 23.4316 36.9319 23.3132 34.4241C23.1947 31.9163 23.7596 29.4235 24.9476 27.2117C26.1356 25 27.9021 23.1525 30.0583 21.8666C32.2145 20.5806 34.6796 19.9044 37.1901 19.9103H37.1701ZM74.9901 74.5203V0.0603027H0.100098V74.5203H74.9901Z" fill="#DDD1C8"/>
</svg>
