<svg width="576" height="349" viewBox="0 0 576 349" fill="none" xmlns="http://www.w3.org/2000/svg">
<g id="Tea Cup">
<rect width="576" height="348.62" fill="white"/>
<path id="Sauce" d="M318.66 245.11H234.28C233.848 245.113 233.421 245.198 233.02 245.36C232.622 245.526 232.261 245.771 231.96 246.08C231.651 246.383 231.409 246.747 231.25 247.15C231.081 247.548 230.996 247.977 231 248.41V248.52C230.997 248.956 231.082 249.388 231.25 249.79C231.408 250.19 231.65 250.552 231.96 250.85C232.259 251.164 232.619 251.415 233.018 251.587C233.417 251.759 233.846 251.848 234.28 251.85H318.66C319.092 251.849 319.52 251.762 319.918 251.596C320.317 251.429 320.679 251.186 320.984 250.879C321.288 250.573 321.529 250.209 321.694 249.81C321.858 249.41 321.941 248.982 321.94 248.55V248.44C321.943 248.004 321.858 247.572 321.69 247.17C321.525 246.774 321.284 246.414 320.98 246.11C320.679 245.798 320.319 245.549 319.921 245.377C319.522 245.205 319.094 245.114 318.66 245.11V245.11Z" fill="#96612F"/>
<path id="Cup" d="M319.4 214.84C319.56 214.03 319.6 213.56 319.6 213.56V185.91C324.28 185.91 330.97 186.64 334.6 189.91C335.474 190.698 336.158 191.673 336.603 192.762C337.048 193.851 337.242 195.026 337.17 196.2C337.13 206.09 331.13 212.43 319.4 214.84ZM340.13 183.6C333.98 178.11 324.28 177.42 318.76 177.53H233.34V213.53C233.34 213.53 234.64 229.53 253.73 238.88H299.13C307.98 234.52 313.02 228.76 315.9 223.88C342.36 220.88 345.52 203.88 345.52 196.17C345.588 193.809 345.141 191.462 344.21 189.291C343.279 187.121 341.887 185.179 340.13 183.6V183.6Z" fill="#D3B5A1"/>
<path id="Steam 3" d="M280.32 155.37C274.09 164.37 278.75 174.37 278.75 174.37C278.75 158.72 290.7 161.65 291.36 149.87C292.25 134.2 277.03 128.87 277.03 128.87C282.93 133.33 286.81 146.03 280.32 155.37Z" fill="#DDD1C8"/>
<path id="Steam 2" d="M277.18 132.6C283.42 141.6 278.75 151.6 278.75 151.6C278.75 135.95 266.8 138.87 266.14 127.11C265.25 111.44 280.47 106.11 280.47 106.11C274.57 110.6 270.7 123.32 277.18 132.64V132.6Z" fill="#DDD1C8"/>
<path id="Steam 1" d="M280.32 109.82C274.09 118.82 278.75 128.82 278.75 128.82C278.75 113.17 290.7 116.1 291.36 104.32C292.25 88.6501 277.03 83.3201 277.03 83.3201C282.93 87.8101 286.81 100.52 280.32 109.85V109.82Z" fill="#DDD1C8"/>
</g>
</svg>
