<svg width="119" height="9" viewBox="0 0 119 9" fill="none" xmlns="http://www.w3.org/2000/svg">
<path id="Underline" d="M114.67 0.110286H4.29999C3.73344 0.108678 3.17231 0.220885 2.64996 0.440273C2.1313 0.653795 1.65916 0.966291 1.25995 1.36029C0.463201 2.15664 0.0108239 3.23385 0 4.36029V4.52029C0.00267719 5.07859 0.115286 5.6309 0.331482 6.14566C0.547677 6.66041 0.863171 7.12751 1.25995 7.52029C2.05852 8.31247 3.13515 8.76106 4.25995 8.77029H114.67C115.795 8.76 116.871 8.31157 117.67 7.52029C118.465 6.72354 118.914 5.64574 118.92 4.52029V4.36029C118.919 3.79817 118.811 3.24141 118.6 2.72027C118.379 2.20312 118.064 1.73174 117.67 1.33029C117.267 0.936008 116.792 0.623562 116.27 0.410274C115.761 0.207132 115.218 0.10524 114.67 0.110286V0.110286Z" fill="#96612F"/>
</svg>
