<svg width="49" height="67" viewBox="0 0 49 67" fill="none" xmlns="http://www.w3.org/2000/svg">
<g clip-path="url(#clip0)">
<path d="M35.8407 34.2957C36.8635 34.2074 37.8894 34.1376 38.9076 34.0256C39.5266 33.9571 39.8531 34.0902 39.7943 34.6738C39.6798 35.8093 39.5838 36.9462 39.4755 38.0818C39.4616 38.2293 39.4755 38.4296 39.2016 38.39C38.9742 38.3545 38.9788 38.1608 38.9912 38.012C39.0515 37.269 39.1274 36.526 39.197 35.7843C39.2202 35.5432 39.2434 35.3035 39.2697 35.0624C39.3239 34.5578 39.0438 34.4169 38.479 34.4617C36.6314 34.6083 34.7828 34.7401 32.9331 34.8569C30.7497 34.9886 28.5663 35.1546 26.3799 35.2139C21.5829 35.3456 16.7937 35.4312 12.003 35.2139C8.94221 35.0821 5.87835 34.9254 2.84854 34.5117C2.21411 34.4248 2.0083 34.5789 2.03925 35.1138C2.20817 38.1139 2.6411 41.0991 3.33443 44.0442C4.40058 48.5733 5.74218 53.0379 7.9364 57.2745C9.22538 59.7657 10.6645 62.2252 13.0954 64.088C15.1442 65.6569 17.5086 66.7622 20.3682 66.4961C23.0282 66.2484 25.3199 65.2064 27.3037 63.6743C30.205 61.4348 31.9892 58.5866 33.5505 55.5988C35.6318 51.6151 36.9548 47.414 38.4898 43.2722C39.101 41.6176 39.7386 39.9709 40.8109 38.4757C41.2936 37.7958 41.9728 37.2325 42.7839 36.8395C44.1456 36.1742 45.7239 36.3126 46.8442 37.2611C49.1298 39.1897 49.3742 41.5254 48.6021 44.0323C48.1472 45.5104 47.0686 46.6987 46.038 47.9094C43.8995 50.4242 41.3154 52.6124 38.92 54.9362C36.3188 57.4616 33.7161 59.983 31.2511 62.6046C28.147 65.9059 24.1934 67.3076 19.2324 66.9519C17.2781 66.811 15.4072 66.6357 13.6509 65.8598C11.1627 64.7585 9.42654 63.0182 7.9333 61.0646C4.86945 57.0598 3.33288 52.5623 2.0996 47.966C1.16805 44.4547 0.522282 40.8929 0.166896 37.3059C0.0678627 36.3442 0.0198932 35.3785 -0.000222962 34.4142C-0.0203392 33.4499 0.239624 33.1443 1.34447 32.8242C2.96769 32.3552 4.66055 32.1918 6.35495 32.0588C7.81106 31.9455 9.27026 31.8533 10.7403 31.7505C10.7496 31.4567 10.4772 31.3553 10.3163 31.2104C9.27644 30.2303 8.95149 29.1237 9.4544 27.8577C9.82577 26.9237 10.4757 26.1372 11.2571 25.4271C12.5121 24.285 13.9496 23.3194 15.4057 22.3708C16.1221 21.9058 16.5229 21.3894 16.5523 20.5634C16.591 19.4357 17.114 18.3805 17.7299 17.3846C17.9914 16.9604 17.9527 16.7404 17.4204 16.5283C16.4311 16.1446 15.5443 15.5927 14.8146 14.9066C13.7809 13.9265 13.6448 12.8805 14.4308 11.7726C15.2432 10.6265 16.656 10.0772 18.0301 10.3485C19.4042 10.6199 20.3233 11.3893 20.9856 12.4076C21.3585 12.9846 21.4127 12.9925 21.8816 12.4537C23.6425 10.4236 23.4058 8.25656 22.4371 6.06051C21.586 4.12793 20.2444 2.43906 18.7233 0.850316C18.5933 0.718579 18.4432 0.586842 18.3179 0.455105C18.2173 0.341812 17.9713 0.221931 18.1276 0.078338C18.338 -0.113998 18.4866 0.103368 18.6181 0.227201C20.1214 1.61898 21.3806 3.18837 22.3566 4.88673C22.9993 5.98903 23.4179 7.17611 23.5945 8.39752C23.8251 10.1549 23.3036 11.7041 21.945 13.0333C21.7943 13.1661 21.6783 13.3246 21.6047 13.4983C21.5311 13.672 21.5015 13.857 21.5179 14.0411C21.5876 14.9462 21.5535 15.8486 21.1466 16.6996C20.9222 17.1699 21.0908 17.3583 21.6386 17.49C24.1711 18.0877 26.7483 18.5384 29.3524 18.839C31.5188 19.0906 33.5846 19.5938 35.4182 20.6622C36.1659 21.0958 36.8075 21.6487 37.3076 22.2905C38.462 23.7594 38.1974 25.3204 36.5896 26.4494C35.1768 27.4361 33.4793 27.8182 31.7199 27.9631C28.2801 28.2463 24.8742 28.104 21.5752 27.1226C19.0034 26.3572 17.1481 24.9977 16.5461 22.6304C16.4827 22.3853 16.4301 22.1706 16.068 22.4143C14.2916 23.6131 12.3945 24.696 11.0327 26.2821C10.3875 27.033 9.81339 27.8089 9.73912 28.7746C9.63854 30.0656 10.4416 30.9258 11.596 31.6201C11.8172 31.7355 12.0786 31.7821 12.3357 31.7518C17.1543 31.6069 21.9713 31.5951 26.7915 31.7637C30.2422 31.8849 33.6882 32.0153 37.1049 32.4737C37.7656 32.562 38.431 32.6516 39.0531 32.8808C39.2898 32.9678 39.5668 33.06 39.5715 33.3169C39.5715 33.6133 39.262 33.7121 39.0005 33.7819C37.9683 34.077 36.8743 34.0822 35.8407 34.2957ZM22.6135 66.5132C24.8941 66.2754 27.0445 65.4786 28.8031 64.2197C30.4464 63.0591 31.5884 61.5191 32.9718 60.1635C36.6268 56.5895 40.3204 53.0497 43.9583 49.4625C45.351 48.0872 46.7901 46.7132 47.6551 45.0204C48.7383 42.8836 48.8822 40.7297 47.5638 38.614C47.1073 37.8815 46.4512 37.29 45.4996 37.0055C44.0698 36.5787 42.3413 37.1596 41.3572 38.4072C40.6624 39.2885 40.2105 40.2712 39.7989 41.2659C38.4063 44.6396 37.3231 48.1004 35.9119 51.4728C34.7529 54.2472 33.5412 57.0058 31.7339 59.5272C29.5366 62.627 26.8812 65.3184 22.6135 66.5132ZM28.7025 27.7062C29.0383 27.7062 29.1404 27.7062 29.2441 27.7062C31.3903 27.6403 33.5335 27.5086 35.4616 26.6062C37.8678 25.4785 38.2128 23.5631 36.3389 21.8742C34.7157 20.4119 32.6345 19.6584 30.3551 19.3449C27.2835 18.9246 24.1918 18.5979 21.21 17.8035C20.7458 17.6797 20.5663 17.8852 20.3651 18.1737C19.5914 19.2698 18.7419 20.3197 17.6293 21.1786C16.9995 21.6647 16.9237 22.1983 17.1017 22.8372C17.6185 24.6973 19.1133 25.7907 21.0754 26.5074C23.5837 27.4243 26.2483 27.6219 28.7025 27.7062V27.7062ZM32.4317 34.4314H31.7679C29.1373 34.4406 26.5068 34.4603 23.8762 34.459C20.1315 34.459 16.4486 34.0638 13.0212 32.7214C11.7925 32.2419 10.6119 32.1945 9.35536 32.259C8.81532 32.2854 8.27218 32.3222 7.73833 32.3657C5.8799 32.5185 3.99362 32.616 2.16614 33.0073C0.530536 33.3564 0.38508 33.5197 0.50423 34.9583C0.717771 37.5153 0.96845 40.0697 1.40017 42.6109C2.30231 47.8883 3.80329 53.0181 6.39364 57.8924C7.66096 60.2755 9.3337 62.4215 11.6424 64.1789C12.8803 65.1234 14.6877 65.985 16.0804 66.2036C14.0206 65.4402 12.2468 64.2098 10.9523 62.6468C8.72093 60.0226 7.23852 57.0809 5.95727 54.0628C4.22418 49.9644 3.12862 45.7291 2.37504 41.4226C1.98973 39.2305 1.74525 37.0292 1.5642 34.8213C1.50385 34.0836 1.64002 33.994 2.50966 34.0994C5.57014 34.4633 8.65129 34.6876 11.7399 34.7712C15.7817 34.8911 19.8251 34.9952 23.8746 34.8371C26.7265 34.7251 29.5799 34.6079 32.4317 34.4314V34.4314ZM12.8123 32.1694C15.3794 33.3656 18.1817 33.8056 21.0382 33.9808C25.3091 34.2443 29.5876 34.1468 33.8615 33.9808C35.0995 33.9334 36.3281 33.832 37.5506 33.6949C38.0241 33.6423 38.5749 33.6752 39.1629 33.1614C30.301 31.8809 21.5613 32.064 12.8123 32.1694ZM17.3013 10.6713C16.1206 10.6713 15.2618 11.272 14.6707 12.2034C14.1214 13.0702 14.3519 13.8501 15.0622 14.5747C15.808 15.3361 16.8015 15.7972 17.8057 16.2517C18.1988 16.4308 18.4247 16.2741 18.6305 16.0027C19.2226 15.2042 19.8814 14.443 20.6019 13.725C20.699 13.6373 20.7676 13.5296 20.8009 13.4125C20.8343 13.2954 20.8313 13.1729 20.7922 13.0571C20.4471 11.8345 18.8951 10.7306 17.3013 10.6713ZM16.9918 21.1141C18.1072 20.3175 19.0499 19.3607 19.7771 18.287C20.2506 17.6007 20.2413 17.5756 19.3547 17.2937C19.0003 17.1804 18.5624 16.8603 18.2715 17.3201C17.5829 18.4359 17.0769 19.6149 16.9995 21.1101L16.9918 21.1141ZM20.9732 13.9871C20.2457 14.6361 19.601 15.3488 19.0498 16.1133C18.8564 16.3768 18.6877 16.6732 19.2046 16.7628C19.6688 16.8432 20.2475 17.4847 20.6096 16.7312C21.0425 15.8649 21.1715 14.9105 20.981 13.9832L20.9732 13.9871Z" fill="black"/>
</g>
<defs>
<clipPath id="clip0">
<rect width="49" height="67" fill="white"/>
</clipPath>
</defs>
</svg>
